<?xml version="1.0" standalone="no"?>
<!DOCTYPE svg PUBLIC "-//W3C//DTD SVG 20010904//EN"
 "http://www.w3.org/TR/2001/REC-SVG-20010904/DTD/svg10.dtd">
<svg version="1.0" xmlns="http://www.w3.org/2000/svg"
 width="566.000000pt" height="583.000000pt" viewBox="0 0 566.000000 583.000000"
 preserveAspectRatio="xMidYMid meet">

<g transform="translate(0.000000,583.000000) scale(0.100000,-0.100000)"
fill="#000000" stroke="none">
<path d="M1938 5658 c-22 -8 -25 -12 -15 -23 7 -7 15 -11 20 -8 4 2 7 -1 7 -7
0 -8 -9 -10 -26 -6 -17 5 -23 3 -19 -4 3 -5 27 -10 53 -10 26 0 64 -4 85 -9
20 -5 37 -7 37 -5 0 2 -16 22 -36 44 -38 41 -57 47 -106 28z"/>
<path d="M2995 4989 c-84 -10 -197 -64 -259 -123 -48 -47 -89 -127 -105 -207
l-12 -56 -52 -7 c-142 -17 -1182 -4 -1815 22 -104 5 -167 3 -174 -3 -7 -7 -12
-6 -15 2 -10 26 -98 -104 -213 -315 -60 -110 -70 -135 -60 -147 11 -13 10 -14
-2 -10 -10 4 -23 -15 -46 -67 -105 -243 -198 -600 -222 -858 -15 -150 -13
-517 3 -523 8 -4 8 -6 1 -6 -24 -2 9 -252 63 -483 21 -86 32 -118 43 -118 21
0 231 75 278 99 21 11 44 26 51 35 11 14 17 13 54 -1 23 -9 56 -26 73 -39 30
-22 35 -22 343 -24 l312 -1 29 -32 c16 -18 30 -38 30 -45 0 -8 -19 -49 -42
-93 l-43 -78 38 -74 c20 -40 37 -81 37 -90 0 -9 5 -17 10 -17 6 0 10 8 10 18
1 16 1 16 11 -1 5 -9 7 -22 4 -27 -10 -16 43 -32 65 -20 26 14 28 13 32 -12 3
-20 10 -23 48 -25 116 -6 162 -3 178 10 10 8 16 7 23 -4 8 -13 14 -5 10 15 -1
5 5 3 14 -4 14 -12 18 -11 26 1 7 11 9 11 9 1 0 -8 7 -11 18 -8 9 3 62 8 117
11 55 4 109 9 120 12 11 4 29 6 40 5 11 -2 52 2 90 8 39 6 89 12 113 14 24 2
48 8 55 15 6 6 16 11 21 11 6 0 4 -5 -4 -11 -11 -8 -8 -9 15 -5 17 3 47 8 68
12 24 4 37 12 38 23 0 10 2 11 6 3 2 -6 9 -9 14 -6 6 3 56 8 112 10 75 3 117
0 157 -12 75 -22 200 -26 236 -8 21 11 29 12 35 3 4 -7 14 -9 25 -4 11 4 48 9
84 11 35 2 77 9 92 15 27 11 42 10 82 -7 13 -5 17 -4 13 3 -6 9 189 29 271 28
12 -1 22 3 22 8 0 5 19 7 43 6 24 -2 48 1 55 5 7 4 12 2 12 -5 0 -8 3 -9 14 0
7 6 95 17 195 25 234 17 223 10 303 196 37 85 37 87 20 370 -12 192 -39 353
-72 427 -12 26 -26 72 -30 102 -5 30 -18 64 -30 76 -24 25 -26 55 -5 55 24 0
28 26 9 55 -14 21 -16 39 -10 95 3 39 13 88 22 110 22 56 5 176 -34 239 -23
38 -38 49 -107 78 -44 18 -129 49 -190 68 -99 31 -117 41 -178 95 -81 71 -88
75 -151 84 -48 7 -48 8 -42 39 3 18 17 40 31 50 14 10 23 23 19 28 -3 5 -1 9
3 9 18 0 42 59 64 157 13 56 20 106 15 110 -4 4 -16 2 -26 -5 -25 -15 -25 -9
1 64 18 52 20 74 15 184 -5 120 -16 172 -50 239 -34 64 -199 201 -243 201 -11
0 -23 4 -28 9 -15 14 -123 19 -200 10z m375 -274 c36 -34 50 -86 49 -176 l-2
-74 -10 49 c-9 38 -18 53 -44 70 -18 11 -33 29 -33 39 0 9 -5 17 -11 17 -6 0
-9 7 -6 14 4 9 -2 17 -14 21 -10 4 -19 12 -19 20 0 7 -5 15 -12 17 -7 3 -9 12
-5 22 10 26 72 15 107 -19z m-442 -47 c-3 -7 -14 -14 -26 -16 -12 -2 -22 -8
-22 -14 0 -14 -37 -46 -64 -54 -25 -8 -56 -38 -56 -56 0 -9 23 -13 84 -14 46
-1 92 -7 103 -13 16 -9 15 -10 -9 -11 -14 0 -28 -5 -30 -12 -3 -9 -22 -8 -78
4 -85 18 -101 16 -117 -18 -10 -22 -10 -24 8 -19 29 9 25 -43 -6 -85 -33 -45
-32 -50 10 -43 29 5 35 3 35 -12 0 -12 -5 -15 -16 -11 -9 4 -26 3 -38 0 -21
-7 -21 -7 -1 -15 18 -7 18 -8 -5 -9 -19 -2 -15 -4 15 -11 22 -5 45 -10 52 -11
7 -1 12 -4 11 -7 -2 -17 3 -31 10 -30 4 1 21 1 37 0 l30 -2 -26 -14 c-14 -8
-36 -16 -50 -18 -88 -16 -99 -25 -113 -89 -4 -16 -11 -25 -19 -23 -9 4 -12
-15 -10 -77 2 -82 2 -83 -12 -43 -7 22 -14 61 -14 88 -1 34 -5 47 -15 47 -17
0 -61 58 -52 67 3 4 6 1 6 -5 0 -7 5 -12 10 -12 6 0 10 7 10 15 0 27 20 15 21
-12 l1 -28 8 29 c5 17 5 36 0 46 -5 9 -5 22 1 31 5 7 9 26 9 42 0 20 -5 27
-20 27 -26 0 -43 -34 -38 -81 2 -27 0 -39 -9 -39 -9 0 -13 16 -13 52 0 28 3
48 7 44 4 -4 15 17 25 46 15 46 15 54 3 64 -17 13 -20 34 -5 34 5 0 14 -9 20
-20 6 -11 15 -18 21 -15 5 4 12 -1 15 -9 12 -32 22 -3 29 86 4 51 13 104 20
118 7 14 10 30 8 37 -2 7 5 22 17 35 l21 23 6 -23 c3 -12 10 -22 15 -22 15 0
64 28 78 44 10 13 16 14 27 5 11 -10 12 -9 7 5 -5 13 1 16 41 16 33 0 45 -4
43 -12z m447 -258 c3 -5 1 -10 -4 -10 -6 0 -11 5 -11 10 0 6 2 10 4 10 3 0 8
-4 11 -10z m71 -114 c0 -114 -9 -210 -18 -186 -4 8 -9 61 -12 117 -3 56 -10
113 -16 128 -8 20 -6 29 8 44 28 30 37 6 38 -103z m-899 27 c-3 -10 -5 -4 -5
12 0 17 2 24 5 18 2 -7 2 -21 0 -30z m495 -75 c11 -18 10 -58 -2 -58 -5 0 -7
-7 -4 -15 4 -9 0 -15 -10 -15 -9 0 -16 -6 -16 -14 0 -17 -16 -23 -87 -31 -63
-8 -77 -2 -62 26 7 13 16 18 28 14 31 -9 53 5 47 30 -11 45 82 100 106 63z m9
-101 c-10 -9 -11 -8 -5 6 3 10 9 15 12 12 3 -3 0 -11 -7 -18z m-196 -126 c-22
-4 -51 -13 -63 -20 -30 -16 -44 -4 -18 15 12 8 41 13 70 13 l51 -2 -40 -6z
m59 -65 c16 6 21 -4 17 -35 -2 -7 2 -10 8 -6 6 3 11 13 11 21 0 22 71 7 92
-20 15 -18 18 -18 18 -4 0 12 7 16 28 13 15 -2 29 -4 32 -5 3 -2 8 -2 13 -1
15 2 6 -27 -10 -34 -54 -23 -263 11 -263 43 0 6 -4 12 -10 12 -5 0 -10 4 -10
9 0 13 33 19 46 9 6 -5 19 -6 28 -2z m-206 -52 c17 -58 14 -75 -5 -39 -16 30
-28 105 -14 89 4 -5 13 -28 19 -50z m205 -43 c4 -16 1 -18 -23 -11 -19 5 -35
4 -48 -6 -17 -12 -20 -11 -31 12 -16 35 -14 52 7 56 24 6 89 -29 95 -51z
m-2246 -36 c-2 -36 -7 -68 -10 -72 -9 -8 -9 100 -1 121 11 30 14 16 11 -49z
m2085 -55 c9 -23 8 -23 -12 -5 -22 20 -27 39 -8 33 6 -2 15 -15 20 -28z
m-1744 -25 c-6 -14 -13 -24 -14 -22 -6 6 9 47 17 47 5 0 3 -11 -3 -25z m2309
-39 c-6 -59 -52 -215 -111 -368 -20 -53 -24 -73 -16 -93 6 -15 10 -32 9 -38 0
-7 -4 -4 -8 6 -6 15 -11 12 -34 -23 -15 -23 -27 -46 -27 -50 0 -5 -8 -15 -19
-22 -10 -7 -24 -30 -32 -51 -7 -21 -22 -47 -32 -57 -10 -11 -14 -20 -10 -21 4
0 -1 -4 -12 -8 -34 -14 -36 -2 -8 42 41 65 0 25 -68 -67 -34 -45 -64 -88 -69
-96 -6 -11 -11 -12 -23 -2 -11 9 -12 22 -7 50 18 88 34 141 41 136 4 -2 45 32
92 76 67 64 93 96 127 162 81 159 159 348 196 476 2 6 6 12 10 12 4 0 4 -29 1
-64z m-2288 0 c-9 -8 -10 -7 -5 7 3 10 7 26 7 35 1 9 4 6 6 -7 3 -13 -1 -28
-8 -35z m1729 -73 c0 -31 -4 -40 -14 -36 -8 3 -14 12 -14 21 0 8 -3 12 -7 8
-8 -8 -6 -63 7 -161 5 -38 11 -92 14 -119 6 -53 16 -75 16 -33 0 34 40 62 75
53 35 -9 49 -43 35 -81 l-11 -29 -17 26 c-14 21 -21 24 -35 17 -9 -6 -17 -16
-17 -24 0 -8 -6 -12 -13 -9 -10 4 -12 -3 -9 -26 5 -33 -16 -158 -28 -165 -4
-2 -33 21 -65 51 -56 53 -57 56 -52 97 28 218 61 413 80 466 l22 64 17 -39 c9
-22 17 -58 16 -81z m-2062 88 c21 17 30 -16 9 -37 -19 -20 -22 -18 -29 21 -3
17 -3 24 0 17 5 -10 9 -10 20 -1z m2144 -152 c0 -5 -7 -9 -15 -9 -8 0 -15 7
-15 15 0 9 6 12 15 9 8 -4 15 -10 15 -15z m-2086 -31 c-3 -5 -13 -8 -23 -6
-25 4 -71 -29 -65 -47 4 -8 1 -15 -4 -15 -24 0 -19 19 15 57 32 36 40 39 60
30 12 -5 20 -14 17 -19z m53 -58 c-31 -44 -128 -97 -151 -83 -6 4 -14 8 -18 8
-20 0 -17 15 3 15 14 0 49 11 77 25 29 14 56 25 61 25 5 0 14 7 21 15 18 22
24 18 7 -5z m-177 -85 c62 -32 91 -94 105 -231 9 -78 23 -94 19 -21 -3 42 -1
46 5 22 15 -54 11 -201 -9 -319 -22 -131 -62 -242 -120 -339 -33 -54 -39 -71
-30 -86 13 -25 13 -31 0 -31 -5 0 -10 10 -10 23 l-1 22 -18 -22 c-11 -13 -21
-23 -23 -23 -1 0 -3 30 -4 68 0 42 -6 79 -17 99 -10 19 -20 75 -26 140 -6 59
-21 162 -35 228 -14 66 -26 138 -26 160 0 23 -9 53 -20 70 -14 21 -20 47 -20
87 0 48 5 62 33 99 44 58 82 79 132 72 22 -3 51 -11 65 -18z m785 -55 c4 -6
16 -8 27 -4 20 6 21 4 15 -77 -9 -119 -135 -600 -193 -734 -17 -39 -17 -39
-25 -15 -6 21 -7 21 -8 5 -2 -26 -39 -173 -41 -160 0 6 -5 29 -9 52 -6 32 -5
43 6 47 7 3 13 9 12 13 -1 4 -1 23 0 41 1 24 5 32 20 32 15 0 20 10 26 48 4
26 22 117 40 202 26 116 31 156 22 162 -6 4 -15 4 -19 0 -4 -4 -25 -76 -45
-160 -21 -87 -41 -146 -45 -139 -20 32 -7 160 32 314 52 206 85 293 127 343
36 41 47 47 58 30z m1568 -419 c-18 -18 -55 -41 -68 -41 -3 0 11 20 32 45 29
36 39 42 46 30 5 -10 2 -21 -10 -34z m-299 -58 c-8 -44 -9 -47 -23 -39 -7 4
-4 19 7 41 9 19 18 35 20 35 2 0 0 -17 -4 -37z m-134 -50 c-8 -3 -24 -13 -35
-22 -20 -16 -20 -16 -1 7 11 12 26 22 35 21 14 0 14 -1 1 -6z m435 -114 c-9
-41 -19 -113 -22 -161 -3 -49 -10 -88 -14 -88 -5 0 -20 20 -35 45 -14 25 -27
45 -28 43 -1 -2 -8 -11 -15 -21 -12 -15 -12 -17 3 -11 27 10 21 -51 -6 -71
-22 -15 -23 -14 -26 5 -2 12 2 29 10 38 11 15 10 15 -8 0 -11 -10 -26 -18 -33
-18 -8 0 -11 -6 -7 -16 4 -10 1 -14 -6 -12 -7 3 -14 18 -16 34 -3 38 34 85 70
87 23 2 31 11 53 62 30 72 85 169 91 162 2 -2 -3 -37 -11 -78z m-367 13 c3
-22 -16 -31 -32 -14 -4 4 -13 7 -19 7 -7 0 -13 7 -15 16 -2 13 4 16 30 15 26
-1 34 -6 36 -24z m-178 -12 c-9 -17 -7 -22 14 -31 13 -6 29 -21 36 -34 7 -13
23 -29 36 -36 27 -14 32 -39 8 -39 -9 0 -12 5 -8 12 5 7 3 8 -5 3 -8 -4 -25 1
-42 14 -34 25 -54 27 -45 4 6 -15 5 -15 -13 1 -19 17 -19 37 1 63 5 7 5 14 -2
18 -8 5 -6 13 6 26 22 25 27 24 14 -1z m792 -42 c-11 -13 -28 -36 -36 -53 -9
-16 -16 -23 -16 -15 0 21 48 90 62 90 6 0 2 -10 -10 -22z m98 18 c0 -2 -8 -10
-17 -17 -16 -13 -17 -12 -4 4 13 16 21 21 21 13z m-927 -21 c-3 -9 -8 -14 -10
-11 -3 3 -2 9 2 15 9 16 15 13 8 -4z m471 -70 c-4 -8 -11 -15 -16 -15 -6 0 -5
6 2 15 7 8 14 15 16 15 2 0 1 -7 -2 -15z m-166 -31 c2 -16 8 -33 13 -38 12
-13 12 -46 -1 -46 -5 0 -10 8 -10 18 0 9 -7 30 -15 46 -18 35 -19 59 -2 54 6
-3 13 -18 15 -34z m-284 1 c6 -17 4 -18 -18 -9 -20 8 -21 24 -2 24 8 0 16 -7
20 -15z m-14 -35 c13 -11 19 -20 13 -20 -5 0 -18 9 -28 20 -10 11 -16 20 -13
20 3 0 15 -9 28 -20z m-67 -63 c-9 -15 -23 30 -16 50 5 14 8 11 14 -12 5 -15
5 -33 2 -38z m78 32 c9 0 10 -2 2 -5 -15 -7 -53 13 -53 28 0 6 8 4 18 -5 10
-10 25 -17 33 -18z m-276 1 c-3 -5 -14 -10 -24 -10 -24 0 -42 -24 -76 -100
-23 -53 -29 -80 -29 -144 l-1 -78 -64 6 c-84 7 -101 23 -101 91 0 43 4 56 23
69 12 9 16 14 9 11 -7 -4 -20 -4 -28 -1 -13 5 -12 11 7 37 12 17 29 33 38 36
9 4 31 20 50 36 19 16 48 35 65 43 37 16 140 19 131 4z m249 -15 c11 -8 31
-15 45 -16 l26 0 -23 -10 c-15 -5 -30 -5 -41 1 -18 9 -31 4 -31 -12 0 -5 5 -6
10 -3 6 3 10 2 10 -4 0 -6 11 -13 25 -17 23 -6 36 -24 18 -24 -5 0 -24 -4 -43
-9 -31 -7 -36 -5 -36 10 0 14 4 15 19 7 13 -7 22 -7 30 1 7 7 2 12 -17 17 -22
5 -26 12 -26 40 0 37 6 40 34 19z m-1794 -136 c0 -6 -4 -7 -10 -4 -5 3 -10 11
-10 16 0 6 5 7 10 4 6 -3 10 -11 10 -16z m2200 -25 c0 -31 -3 -35 -22 -32 -33
4 -37 45 -6 57 13 6 24 10 26 10 1 1 2 -15 2 -35z m153 -24 c-14 -12 -63 -21
-63 -11 0 5 15 21 33 35 31 25 32 25 35 5 2 -12 0 -25 -5 -29z m-255 -32 c2
-20 -2 -27 -23 -32 -29 -7 -45 -1 -44 17 0 9 2 9 6 0 2 -7 9 -13 15 -13 5 0 8
6 5 13 -6 17 12 49 26 44 7 -2 13 -15 15 -29z m-1119 -67 c0 -11 -2 -12 -6 -3
-2 6 -8 10 -12 8 -4 -3 -8 7 -9 22 -1 26 -1 26 13 8 8 -11 15 -27 14 -35z
m-114 29 c4 -7 12 -7 24 0 14 7 23 5 35 -9 29 -32 9 -46 -22 -15 -13 14 -17
14 -21 3 -9 -22 -33 -17 -42 9 -6 16 -5 22 6 22 7 0 17 -5 20 -10z m159 -16
c4 -10 1 -14 -6 -12 -15 5 -23 28 -10 28 5 0 13 -7 16 -16z m1016 -14 c24 -13
81 -116 112 -202 35 -98 35 -106 1 -120 -16 -7 -35 -18 -44 -25 -23 -19 -128
-53 -165 -53 -18 0 -36 5 -40 11 -4 6 -20 8 -40 4 l-34 -6 21 35 c17 29 22 59
26 155 4 83 2 129 -6 149 -13 31 -56 58 -66 42 -4 -6 -11 -10 -17 -10 -6 0 -4
8 6 18 14 17 29 18 124 14 59 -2 114 -8 122 -12z m474 -5 c15 -23 18 -24 32
-10 23 23 26 18 7 -12 -9 -16 -11 -23 -4 -16 8 6 20 9 27 6 10 -4 13 0 8 13
-5 18 -5 18 6 1 16 -25 6 -47 -19 -40 -29 7 -26 -9 6 -48 23 -27 24 -30 6 -21
-22 12 -108 152 -94 152 5 0 16 -11 25 -25z m-1689 -85 c-27 -12 -35 -12 -35
0 0 6 12 10 28 9 24 0 25 -1 7 -9z m865 -80 c8 -5 12 -12 9 -15 -8 -8 -39 5
-39 16 0 11 11 11 30 -1z m-782 -105 c2 -2 -20 -19 -48 -40 -27 -20 -50 -42
-51 -48 0 -8 -2 -8 -6 0 -2 7 8 33 24 57 24 38 32 44 53 39 14 -3 26 -7 28 -8z
m122 -205 c0 -5 -4 -10 -10 -10 -5 0 -10 5 -10 10 0 6 5 10 10 10 6 0 10 -4
10 -10z m-20 -24 c0 -3 -4 -8 -10 -11 -5 -3 -10 -1 -10 4 0 6 5 11 10 11 6 0
10 -2 10 -4z"/>
<path d="M2620 4315 c0 -8 2 -15 4 -15 2 0 6 7 10 15 3 8 1 15 -4 15 -6 0 -10
-7 -10 -15z"/>
<path d="M3020 4210 c0 -5 5 -10 11 -10 5 0 7 5 4 10 -3 6 -8 10 -11 10 -2 0
-4 -4 -4 -10z"/>
<path d="M3076 3155 c-4 -11 -14 -35 -22 -53 -8 -18 -10 -31 -4 -27 17 10 41
65 37 83 -3 15 -5 14 -11 -3z"/>
<path d="M1391 3303 c-14 -27 -52 -155 -47 -160 2 -3 7 5 11 16 3 12 11 21 16
21 15 0 28 44 15 53 -8 5 -6 11 5 20 21 16 40 53 32 61 -11 11 -22 7 -32 -11z"/>
<path d="M4830 1800 c20 -13 73 -13 65 0 -3 6 -23 10 -43 10 -28 0 -33 -3 -22
-10z"/>
<path d="M4782 1748 c-18 -18 -15 -59 6 -74 16 -13 16 -13 -3 -14 -17 0 -17
-2 -5 -10 17 -11 37 -13 27 -3 -4 3 -2 12 4 19 12 15 37 8 62 -18 17 -17 17
-18 0 -19 -16 0 -16 -1 2 -9 32 -14 43 -11 50 11 4 12 10 17 14 12 11 -16 78
-43 108 -43 16 0 34 -5 39 -10 16 -16 74 -30 74 -19 0 6 6 17 14 25 8 7 12 22
10 31 -4 14 -15 18 -54 16 -34 -1 -57 5 -72 17 -13 9 -41 20 -62 24 -43 8 -66
26 -66 50 0 20 -10 20 -24 0 -9 -12 -17 -13 -39 -5 -15 6 -27 15 -27 21 0 14
-43 13 -58 -2z m321 -134 c-4 -11 -7 -11 -19 1 -19 19 -18 24 5 18 12 -3 17
-11 14 -19z"/>
<path d="M4965 1590 c27 -12 43 -12 25 0 -8 5 -22 9 -30 9 -10 0 -8 -3 5 -9z"/>
</g>
</svg>
